<svg width="20" height="20" viewBox="0 0 20 20" fill="none">
<path fill-rule="evenodd" clip-rule="evenodd" d="M0.833252 2.36501C0.833252 1.95879 0.994624 1.5692 1.28187 1.28196C1.56911 0.994717 1.9587 0.833346 2.36492 0.833346H17.6333C17.8346 0.833017 18.034 0.872398 18.22 0.949234C18.4061 1.02607 18.5752 1.13885 18.7176 1.28113C18.8601 1.4234 18.973 1.59237 19.0501 1.77835C19.1271 1.96434 19.1667 2.1637 19.1666 2.36501V17.6333C19.1668 17.8347 19.1273 18.0341 19.0504 18.2202C18.9735 18.4063 18.8606 18.5754 18.7183 18.7178C18.5759 18.8602 18.4069 18.9731 18.2209 19.0502C18.0348 19.1272 17.8354 19.1668 17.6341 19.1667H2.36492C2.16371 19.1667 1.96447 19.127 1.77858 19.05C1.5927 18.973 1.42381 18.8601 1.28157 18.7178C1.13933 18.5755 1.02653 18.4065 0.949604 18.2206C0.87268 18.0347 0.833143 17.8354 0.833252 17.6342V2.36501ZM8.08992 7.82335H10.5724V9.07001C10.9308 8.35335 11.8474 7.70835 13.2249 7.70835C15.8658 7.70835 16.4916 9.13585 16.4916 11.755V16.6067H13.8191V12.3517C13.8191 10.86 13.4608 10.0183 12.5508 10.0183C11.2883 10.0183 10.7633 10.9258 10.7633 12.3517V16.6067H8.08992V7.82335ZM3.50659 16.4925H6.17992V7.70835H3.50659V16.4917V16.4925ZM6.56242 4.84335C6.56746 5.07224 6.52673 5.29983 6.44262 5.51277C6.35851 5.72571 6.23271 5.91971 6.07261 6.08337C5.91251 6.24704 5.72133 6.37707 5.5103 6.46585C5.29926 6.55463 5.07262 6.60036 4.84367 6.60036C4.61472 6.60036 4.38808 6.55463 4.17704 6.46585C3.966 6.37707 3.77483 6.24704 3.61473 6.08337C3.45463 5.91971 3.32883 5.72571 3.24472 5.51277C3.16061 5.29983 3.11988 5.07224 3.12492 4.84335C3.13481 4.39406 3.32024 3.9665 3.64149 3.65225C3.96274 3.338 4.39427 3.16203 4.84367 3.16203C5.29307 3.16203 5.7246 3.338 6.04585 3.65225C6.3671 3.9665 6.55253 4.39406 6.56242 4.84335Z" fill="black"/>
</svg>
