<svg width="25" height="25" viewBox="0 0 25 25" fill="none" xmlns="http://www.w3.org/2000/svg">
<path d="M12.5 1.5625C6.45996 1.5625 1.5625 6.45996 1.5625 12.5C1.5625 18.54 6.45996 23.4375 12.5 23.4375C18.54 23.4375 23.4375 18.54 23.4375 12.5C23.4375 6.45996 18.54 1.5625 12.5 1.5625ZM17.7563 9.80713C17.7637 9.92188 17.7637 10.0415 17.7637 10.1587C17.7637 13.7427 15.0342 17.8711 10.0464 17.8711C8.5083 17.8711 7.08252 17.4243 5.88135 16.6553C6.10107 16.6797 6.31104 16.6895 6.53565 16.6895C7.80518 16.6895 8.97217 16.2598 9.90234 15.5322C8.71094 15.5078 7.70996 14.7266 7.36816 13.6523C7.78564 13.7134 8.16162 13.7134 8.59131 13.6035C7.97785 13.4789 7.42645 13.1457 7.0308 12.6606C6.63515 12.1755 6.41964 11.5684 6.4209 10.9424V10.9082C6.77979 11.1108 7.20215 11.2354 7.64404 11.2524C7.27256 11.0049 6.96792 10.6695 6.75711 10.276C6.5463 9.88244 6.43585 9.443 6.43555 8.99658C6.43555 8.49121 6.56738 8.02979 6.8042 7.62939C7.48511 8.46762 8.33479 9.15318 9.29801 9.64152C10.2612 10.1299 11.3164 10.41 12.395 10.4639C12.0117 8.62061 13.3887 7.12891 15.0439 7.12891C15.8252 7.12891 16.5283 7.45605 17.0239 7.9834C17.6367 7.86865 18.2227 7.63916 18.7451 7.33154C18.5425 7.95898 18.1177 8.48877 17.5537 8.82324C18.1006 8.76465 18.6279 8.61328 19.1162 8.40088C18.7476 8.94287 18.2861 9.42383 17.7563 9.80713Z" fill="black"/>
</svg>
